<?xml version="1.0" encoding="UTF-8" standalone="no"?>
<svg
   version="1.1"
   width="258"
   height="258"
   style="fill:none"
   id="svg8"
   sodipodi:docname="logo.svg"
   inkscape:version="1.1.2 (0a00cf5339, 2022-02-04)"
   xmlns:inkscape="http://www.inkscape.org/namespaces/inkscape"
   xmlns:sodipodi="http://sodipodi.sourceforge.net/DTD/sodipodi-0.dtd"
   xmlns="http://www.w3.org/2000/svg"
   xmlns:svg="http://www.w3.org/2000/svg">
  <defs
     id="defs12" />
  <sodipodi:namedview
     id="namedview10"
     pagecolor="#505050"
     bordercolor="#eeeeee"
     borderopacity="1"
     inkscape:pageshadow="0"
     inkscape:pageopacity="0"
     inkscape:pagecheckerboard="0"
     showgrid="false"
     inkscape:zoom="2.3444444"
     inkscape:cx="128.81517"
     inkscape:cy="128.6019"
     inkscape:window-width="1920"
     inkscape:window-height="1016"
     inkscape:window-x="0"
     inkscape:window-y="27"
     inkscape:window-maximized="1"
     inkscape:current-layer="svg8" />
  <path
     d=""
     style="fill:#24292e;fill-opacity:1;stroke:#444444;stroke-width:15;stroke-linecap:round;stroke-linejoin:round"
     id="path2" />
  <path
     d=""
     style="fill:#24292e;fill-opacity:1;stroke:#777777;stroke-width:15;stroke-linecap:round;stroke-linejoin:round"
     id="path4" />
  <path
     style="color:#000000;fill:#24292e;fill-opacity:1;stroke-linecap:square;-inkscape-stroke:none"
     d="m 0,0 v 9 9 180 H 120.09375 L 159.5625,99.32617 68.23047,129.76953 111.48633,0 H 18 Z M 137.90625,0 98.4375,98.67383 189.76953,68.23047 146.51367,198 H 258 V 18 9 0 h -9 -9 z M 18,18 H 86.51172 L 39.769531,158.23047 128.4375,128.67578 107.90625,180 H 18 Z m 132.09375,0 H 240 V 180 H 171.48828 L 218.23047,39.769531 129.5625,69.32422 Z M 0,210 v 30 9 9 H 9 18 122.27148 135.72852 258 v -30 -9 -9 h -9 -9 -69.72852 L 129,251.27148 87.72852,210 Z m 18,18 h 62.27148 l 12,12 H 18 Z m 159.72852,0 H 240 v 12 h -74.27148 z"
     id="path6" />
</svg>
